<svg width="32" height="32" viewBox="0 0 32 32" xmlns="http://www.w3.org/2000/svg">
  <defs>
    <linearGradient id="hg" x1="0%" y1="0%" x2="100%" y2="100%">
      <stop offset="0%" style="stop-color:#3B82F6;stop-opacity:1" />
      <stop offset="25%" style="stop-color:#8B5CF6;stop-opacity:1" />
      <stop offset="50%" style="stop-color:#EC4899;stop-opacity:1" />
      <stop offset="75%" style="stop-color:#F472B6;stop-opacity:1" />
      <stop offset="100%" style="stop-color:#3B82F6;stop-opacity:1" />
    </linearGradient>
    <linearGradient id="ig" x1="0%" y1="0%" x2="100%" y2="100%">
      <stop offset="0%" style="stop-color:#EC4899;stop-opacity:0.8" />
      <stop offset="50%" style="stop-color:#8B5CF6;stop-opacity:0.6" />
      <stop offset="100%" style="stop-color:#3B82F6;stop-opacity:0.8" />
    </linearGradient>
    <linearGradient id="hl" x1="0%" y1="0%" x2="100%" y2="0%">
      <stop offset="0%" style="stop-color:#FFFFFF;stop-opacity:0.4" />
      <stop offset="50%" style="stop-color:#FFFFFF;stop-opacity:0.2" />
      <stop offset="100%" style="stop-color:#FFFFFF;stop-opacity:0" />
    </linearGradient>
    <filter id="gl">
      <feGaussianBlur stdDeviation="1.5" result="coloredBlur"/>
      <feMerge>
        <feMergeNode in="coloredBlur"/>
        <feMergeNode in="SourceGraphic"/>
      </feMerge>
    </filter>
    <filter id="sh" x="-50%" y="-50%" width="200%" height="200%">
      <feDropShadow dx="0" dy="2" stdDeviation="2" flood-color="#000000" flood-opacity="0.5"/>
    </filter>
  </defs>
  <circle cx="16" cy="16" r="15" fill="url(#hg)" opacity="0.3" filter="url(#sh)"/>
  <path d="M 8 6 L 8 26 L 18 26 Q 22 26 22 22 L 22 10 Q 22 6 18 6 Z" fill="url(#hg)" filter="url(#gl)" opacity="0.95"/>
  <path d="M 10 8 L 10 24 L 18 24 Q 20 24 20 22 L 20 10 Q 20 8 18 8 Z" fill="url(#ig)" opacity="0.6"/>
  <path d="M 8 6 L 8 12 L 18 12 Q 20 12 20 10 L 20 8 Q 20 6 18 6 Z" fill="url(#hl)"/>
  <path d="M 8 6 L 8 26 L 18 26 Q 22 26 22 22 L 22 10 Q 22 6 18 6 Z" fill="none" stroke="rgba(255,255,255,0.3)" stroke-width="0.5"/>
</svg>
